<svg xmlns="http://www.w3.org/2000/svg" width="512" height="512" viewBox="0 0 512 512" fill="none">
  <rect width="512" height="512" rx="128" fill="#2563EB"/>
  <path d="M348.25 160H163.75C158.641 160 154.5 164.141 154.5 169.25V246.5C154.5 251.609 158.641 255.75 163.75 255.75H348.25C353.359 255.75 357.5 251.609 357.5 246.5V169.25C357.5 164.141 353.359 160 348.25 160ZM338 236.25H174V179.5H338V236.25Z" fill="white"/>
  <path d="M348.25 274.25H163.75C158.641 274.25 154.5 278.391 154.5 283.5V342.75C154.5 347.859 158.641 352 163.75 352H348.25C353.359 352 357.5 347.859 357.5 342.75V283.5C357.5 278.391 353.359 274.25 348.25 274.25ZM338 332.5H174V293.75H338V332.5Z" fill="white"/>
  <path d="M256 191.75C245.781 191.75 237.5 200.031 237.5 210.25C237.5 220.469 245.781 228.75 256 228.75C266.219 228.75 274.5 220.469 274.5 210.25C274.5 200.031 266.219 191.75 256 191.75Z" fill="white"/>
  <path d="M256 306C245.781 306 237.5 314.281 237.5 324.5C237.5 334.719 245.781 343 256 343C266.219 343 274.5 334.719 274.5 324.5C274.5 314.281 266.219 306 256 306Z" fill="white"/>
</svg> 