<?xml version="1.0" standalone="no"?>
<!DOCTYPE svg PUBLIC "-//W3C//DTD SVG 20010904//EN"
 "http://www.w3.org/TR/2001/REC-SVG-20010904/DTD/svg10.dtd">
<svg version="1.0" xmlns="http://www.w3.org/2000/svg"
 width="700.000000pt" height="700.000000pt" viewBox="0 0 700.000000 700.000000"
 preserveAspectRatio="xMidYMid meet">
<metadata>
Created by potrace 1.14, written by Peter Selinger 2001-2017
</metadata>
<g transform="translate(0.000000,700.000000) scale(0.100000,-0.100000)"
fill="#000000" stroke="none">
<path d="M3278 5615 c-2 -1 -34 -5 -73 -9 -38 -3 -81 -8 -95 -10 -14 -3 -43
-7 -65 -10 -396 -57 -821 -245 -1130 -500 -149 -123 -340 -330 -445 -481 -63
-92 -158 -258 -193 -339 -24 -54 -45 -106 -47 -115 -2 -9 -6 -21 -9 -25 -3 -5
-7 -19 -10 -33 -2 -13 -14 -58 -25 -100 -12 -41 -24 -88 -27 -105 -2 -16 -6
-32 -9 -36 -8 -13 -38 -232 -40 -297 -1 -33 -5 -65 -10 -73 -4 -7 -3 -12 2
-12 5 0 5 -16 0 -40 -5 -24 -5 -62 0 -90 5 -27 5 -50 0 -50 -5 0 -5 -13 0 -30
5 -18 5 -30 0 -30 -5 0 -5 -13 0 -30 5 -16 6 -30 2 -30 -10 0 -9 -30 0 -37 5
-3 5 -18 1 -35 -5 -18 -6 -49 -3 -70 9 -57 13 -88 17 -118 1 -14 6 -38 9 -55
16 -75 26 -117 32 -135 4 -11 16 -51 26 -90 21 -74 85 -239 124 -318 12 -25
23 -49 23 -55 0 -5 5 -17 12 -27 7 -10 26 -44 42 -75 107 -201 312 -445 514
-611 75 -61 251 -182 339 -233 75 -44 247 -127 315 -152 22 -8 51 -19 65 -24
108 -41 349 -101 454 -115 23 -3 51 -7 63 -10 84 -18 472 -24 564 -9 13 2 42
7 66 11 23 3 74 13 114 22 39 8 81 17 94 19 12 2 59 16 104 30 386 122 709
329 989 631 169 182 343 454 407 636 8 22 19 51 25 65 6 14 13 33 15 42 3 9
12 40 21 68 28 94 55 210 63 273 3 33 9 73 12 88 6 35 6 363 -1 400 -3 17 -8
50 -11 75 -18 148 -88 407 -140 515 -8 17 -15 32 -15 35 0 16 -113 222 -169
307 -141 214 -336 419 -529 555 -74 52 -212 138 -222 138 -3 0 -27 14 -54 30
-53 32 -304 139 -371 159 -22 7 -62 19 -90 27 -27 8 -77 20 -110 26 -33 7 -73
15 -90 19 -76 17 -156 26 -250 30 -58 2 -107 2 -110 0z"/>
</g>
</svg> 